HIERARCHY
ROOT root
{
	OFFSET 0.000000 0.000000 0.000000
	CHANNELS 6 Xposition Yposition Zposition Zrotation Yrotation Xrotation
	JOINT lhip
	{
		OFFSET 0.058581 -0.082280 -0.017664
		CHANNELS 3 Zrotation Yrotation Xrotation
		JOINT lknee
		{
			OFFSET 0.043451 -0.386469 0.008037
			CHANNELS 3 Zrotation Yrotation Xrotation
			JOINT lankle
			{
				OFFSET -0.014790 -0.426874 -0.037428
				CHANNELS 3 Zrotation Yrotation Xrotation
				JOINT ltoe
				{
					OFFSET 0.041054 -0.060286 0.122042
					CHANNELS 3 Zrotation Yrotation Xrotation
					End Site
					{
						OFFSET 0.000000 0.000000 0.000000
					}
				}
			}
		}
	}
	JOINT rhip
	{
		OFFSET -0.060310 -0.090513 -0.013543
		CHANNELS 3 Zrotation Yrotation Xrotation
		JOINT rknee
		{
			OFFSET -0.043257 -0.383688 -0.004843
			CHANNELS 3 Zrotation Yrotation Xrotation
			JOINT rankle
			{
				OFFSET 0.019056 -0.420046 -0.034562
				CHANNELS 3 Zrotation Yrotation Xrotation
				JOINT rtoe
				{
					OFFSET -0.034840 -0.062106 0.130323
					CHANNELS 3 Zrotation Yrotation Xrotation
					End Site
					{
						OFFSET 0.000000 0.000000 0.000000
					}
				}
			}
		}
	}
	JOINT lowerback
	{
		OFFSET 0.004439 0.124404 -0.038385
		CHANNELS 3 Zrotation Yrotation Xrotation
		JOINT upperback
		{
			OFFSET 0.004488 0.137956 0.026820
			CHANNELS 3 Zrotation Yrotation Xrotation
			JOINT chest
			{
				OFFSET -0.002265 0.056032 0.002855
				CHANNELS 3 Zrotation Yrotation Xrotation
				JOINT lowerneck
				{
					OFFSET -0.013390 0.211636 -0.033468
					CHANNELS 3 Zrotation Yrotation Xrotation
					JOINT upperneck
					{
						OFFSET 0.010113 0.088937 0.050410
						CHANNELS 3 Zrotation Yrotation Xrotation
						End Site
						{
							OFFSET 0.000000 0.000000 0.000000
						}
					}
				}
				JOINT lclavicle
				{
					OFFSET 0.071702 0.114000 -0.018898
					CHANNELS 3 Zrotation Yrotation Xrotation
					JOINT lshoulder
					{
						OFFSET 0.122921 0.045205 -0.019046
						CHANNELS 3 Zrotation Yrotation Xrotation
						JOINT lelbow
						{
							OFFSET 0.255332 -0.015649 -0.022946
							CHANNELS 3 Zrotation Yrotation Xrotation
							JOINT lwrist
							{
								OFFSET 0.265709 0.012698 -0.007375
								CHANNELS 3 Zrotation Yrotation Xrotation
								End Site
								{
									OFFSET 0.000000 0.000000 0.000000
								}
							}
						}
					}
				}
				JOINT rclavicle
				{
					OFFSET -0.082954 0.112472 -0.023707
					CHANNELS 3 Zrotation Yrotation Xrotation
					JOINT rshoulder
					{
						OFFSET -0.113228 0.046853 -0.008472
						CHANNELS 3 Zrotation Yrotation Xrotation
						JOINT relbow
						{
							OFFSET -0.260127 -0.014369 -0.031269
							CHANNELS 3 Zrotation Yrotation Xrotation
							JOINT rwrist
							{
								OFFSET -0.269108 0.006794 -0.006027
								CHANNELS 3 Zrotation Yrotation Xrotation
								End Site
								{
									OFFSET 0.000000 0.000000 0.000000
								}
							}
						}
					}
				}
			}
		}
	}
}
MOTION
Frames: 10
Frame Time: 0.033333
1.232116 0.199140 0.977039 -76.838131 0.674795 89.196337 -3.905284 -3.794689 8.217574 -2.565886 -17.464709 12.761907 2.215085 11.651680 -24.288472 0.000000 -0.000000 0.000000 -3.628353 0.244563 -18.584352 2.206027 -3.608250 2.590886 1.621991 -10.647010 -11.596732 0.000000 -0.000000 0.000000 -0.028922 -2.766902 1.549886 3.393952 -4.316788 12.651204 1.355058 -1.789864 -5.964130 -5.900516 -0.192096 8.340030 4.701323 2.317715 -6.185656 -18.411003 -5.692862 5.346642 -62.114574 -11.354196 15.396380 19.548528 -27.532916 -5.880057 -20.002028 -18.345341 9.288609 15.444751 7.187984 3.548819 58.611525 6.528470 7.481593 -15.072556 7.859980 -7.001205 19.502086 14.804511 -4.582654 
1.204243 0.202804 0.976313 -75.637238 0.729412 89.234849 -2.902628 -3.875895 9.388438 -3.082796 -18.182013 14.076950 1.288827 11.220674 -24.324987 0.000000 -0.000000 0.000000 -3.320282 -0.026163 -17.866914 2.439327 -4.455116 4.233245 1.184792 -10.833784 -8.845777 0.000000 -0.000000 0.000000 0.085972 -3.177223 0.853680 3.790640 -4.628243 12.476029 1.342258 -2.119602 -5.810555 -6.008295 -0.163661 8.767145 4.116119 1.736678 -5.593404 -18.543013 -5.597226 5.842743 -62.545758 -10.973140 15.285600 18.452139 -25.193129 -4.913894 -20.883628 -18.087776 9.334860 15.653299 6.566679 3.386465 58.281842 5.129929 6.797902 -14.779266 8.010575 -6.589578 20.019313 14.719037 -4.417998 
1.175594 0.206891 0.977106 -75.033961 0.843898 89.252720 -1.921461 -3.950684 10.214592 -3.783261 -18.399057 16.144275 0.249976 10.989476 -23.798952 0.000000 -0.000000 0.000000 -3.017447 -0.137035 -17.280017 3.022444 -4.362044 6.296132 1.235330 -10.423713 -6.672533 0.000000 -0.000000 0.000000 0.317010 -3.420418 0.232390 4.138089 -4.728555 12.123687 1.265050 -2.311399 -5.532221 -6.148657 -0.084218 8.887574 3.381322 1.357087 -4.761824 -18.629417 -5.278715 6.143958 -63.097823 -10.457303 15.262247 17.514362 -22.503889 -3.870425 -21.427902 -17.733610 9.006400 15.918652 6.015669 3.398108 57.875911 4.222873 6.335078 -14.423514 7.955485 -6.241356 20.239600 14.506684 -4.183508 
1.146356 0.211162 0.979263 -75.031286 1.052818 89.351951 -1.005595 -4.259787 10.343345 -4.846576 -18.031463 19.351278 -1.180008 10.895106 -22.477085 0.000000 -0.000000 0.000000 -2.344996 0.634096 -16.449534 3.416348 -4.160793 8.141230 0.574549 -10.158658 -6.398585 0.000000 -0.000000 0.000000 0.716909 -3.494083 -0.531033 4.312862 -4.697904 11.795965 1.158178 -2.330853 -5.354466 -6.197709 0.150393 9.282692 2.725482 1.123426 -4.059560 -18.523491 -4.906196 6.435565 -63.862075 -9.678551 15.094102 17.041422 -19.813516 -3.356475 -22.224544 -17.081097 8.768023 15.895888 5.757062 3.454395 57.815618 3.693220 6.183612 -14.175150 7.438093 -5.937212 20.423692 14.327548 -4.017594 
1.117535 0.215756 0.982067 -75.158227 1.186046 89.421669 -0.049648 -4.818641 9.330056 -6.617412 -16.731359 24.269876 -2.925846 10.641857 -19.856027 0.000000 -0.000000 0.000000 -1.397597 1.655237 -14.918305 3.546277 -3.796993 8.693630 -1.048291 -10.211363 -6.818931 0.000000 -0.000000 0.000000 1.030022 -3.362377 -1.139199 4.303616 -4.799739 11.255794 1.065742 -2.326505 -5.010746 -6.003178 0.487951 9.692696 2.173014 0.907206 -3.425245 -18.246353 -4.587134 6.654914 -64.556335 -8.802584 14.851967 16.762665 -17.380276 -3.421149 -22.968531 -16.584587 7.990574 15.673496 5.744959 3.321058 58.047693 3.538841 6.410864 -13.991304 6.638859 -5.722429 20.586466 14.093964 -4.047989 
1.090217 0.220409 0.984894 -75.078040 1.123971 89.474887 0.893797 -5.247416 6.648854 -8.471123 -14.061600 31.108655 -4.542243 9.794240 -15.319943 0.000000 -0.000000 0.000000 -0.522919 1.806850 -12.940016 3.633104 -3.461455 8.339030 -2.584525 -10.147779 -7.693540 0.000000 -0.000000 0.000000 1.155117 -2.967771 -1.344479 4.095642 -5.131489 10.342425 1.015980 -2.415305 -4.623397 -5.722208 0.710700 10.014220 1.855469 0.741904 -2.754301 -17.985813 -4.248156 6.802438 -64.846156 -8.021565 14.562404 16.522142 -15.478817 -3.401026 -23.957246 -16.101497 7.436702 15.352261 5.701773 3.180764 58.389215 3.836646 6.685670 -13.874390 6.074372 -5.695848 20.869870 13.717414 -3.701218 
1.065160 0.224582 0.986973 -74.720255 1.067646 89.575039 1.762523 -5.766769 2.506993 -9.820873 -10.841758 39.007394 -4.930522 9.052906 -9.016605 0.000000 -0.000000 0.000000 0.192888 1.376290 -10.710223 3.875062 -3.336634 7.221943 -3.968203 -10.004089 -8.525084 0.000000 -0.000000 0.000000 1.368213 -2.314553 -1.194568 3.763821 -5.625095 9.313268 1.023846 -2.513466 -4.325743 -5.664303 0.588841 10.244878 1.803204 0.669747 -2.259343 -17.872993 -4.214778 7.063489 -64.754275 -7.348959 13.994882 16.429400 -14.672430 -3.197671 -24.706471 -15.610266 6.978535 14.816996 5.725310 3.067817 58.727617 4.243431 6.592155 -13.822158 6.327809 -5.877286 21.169077 13.270123 -3.412832 
1.042417 0.228198 0.987996 -74.526241 1.043842 89.619939 2.470828 -6.277013 -2.362090 -10.103473 -7.024541 46.797705 -4.045982 9.858228 -3.409096 0.000000 -0.000000 0.000000 0.832083 1.115741 -8.610552 4.147968 -3.069297 6.122247 -5.084842 -10.133738 -9.380506 0.000000 -0.000000 0.000000 1.641782 -1.387988 -0.800261 3.400127 -5.946939 8.563470 1.039869 -2.456019 -4.048179 -5.711584 0.029839 9.992876 1.878927 0.561351 -1.804453 -17.854001 -4.496159 7.361291 -64.443902 -6.924569 13.265929 16.419127 -14.985543 -2.844779 -24.357043 -15.424293 6.137074 14.272892 6.041557 3.026119 58.797789 4.600052 6.255144 -13.739393 7.453929 -6.152339 20.738959 13.045313 -3.649281 
1.021073 0.231413 0.988845 -74.835369 1.031177 89.462968 3.053122 -6.289183 -7.141086 -8.867794 -2.934030 52.915648 -2.862100 12.103699 -2.416286 0.000000 -0.000000 0.000000 1.575304 1.126674 -6.568130 4.159436 -2.503660 5.298212 -5.612209 -10.363595 -10.215560 0.000000 -0.000000 0.000000 1.841872 -0.232209 -0.224938 3.127399 -5.938324 8.270551 1.017159 -2.199286 -3.875751 -5.559782 -0.488722 9.605461 1.861303 0.080348 -1.588277 -17.986609 -4.694857 7.412866 -63.933232 -6.743603 12.674510 16.469236 -15.916368 -2.755223 -23.564886 -15.518335 5.648541 14.031294 6.657120 3.133922 58.304374 5.031210 5.979155 -13.585667 8.889154 -6.212621 19.749011 13.147383 -4.083903 
1.000201 0.234077 0.989986 -75.485906 0.887249 89.087753 3.270019 -6.234108 -11.246933 -7.332953 0.146998 56.401526 -1.691615 13.842503 -4.191597 0.000000 -0.000000 0.000000 2.200263 1.008457 -4.127964 3.984874 -1.920477 4.073365 -5.604500 -10.358404 -10.753563 0.000000 -0.000000 0.000000 1.822053 1.036147 0.410319 2.868181 -5.786052 8.348258 0.984264 -1.819099 -3.775586 -5.292126 -0.870122 9.531119 1.838647 -0.533084 -1.725907 -18.158077 -4.709839 7.208576 -63.401308 -6.661051 12.262856 16.697178 -17.219683 -3.253244 -22.765210 -15.658522 5.685255 14.000871 7.452919 3.309884 57.475084 5.748511 5.945621 -13.415543 10.109437 -6.062889 18.807871 13.267993 -4.230054 
